<?xml version="1.0" encoding="UTF-8"?>
<svg version="1.1" xmlns="http://www.w3.org/2000/svg" width="1024" height="1024">
<path d="M0 0 C2.64 0 5.28 0 8 0 C8 0.33 8 0.66 8 1 C8.63289948 0.99777939 9.26579895 0.99555878 9.9178772 0.99327087 C16.57024566 0.97095949 23.2226033 0.95598682 29.875 0.94506836 C32.3499393 0.94007336 34.82487569 0.93327509 37.29980469 0.92456055 C63.69257354 0.83402845 63.69257354 0.83402845 75 2 C75 1.34 75 0.68 75 0 C81.552 -0.126 81.552 -0.126 84 0.5625 C87.09384361 1.23927829 89.91444879 0.53403771 93 0 C93.33 0.66 93.66 1.32 94 2 C96.97 1.34 99.94 0.68 103 0 C103 0.33 103 0.66 103 1 C104.65 1.33 106.3 1.66 108 2 C108.33 1.34 108.66 0.68 109 0 C111.76067717 0.80871006 113.68271284 1.38416345 116 3 C117.01656608 5.95732695 117.45109148 8.0556136 117.72949219 11.10205078 C117.83308422 11.93767107 117.93667625 12.77329136 118.04340744 13.63423347 C118.26794581 15.45999754 118.47888606 17.28747261 118.67796326 19.11618805 C119.00291343 22.02608953 119.38016589 24.92442627 119.77502441 27.82562256 C120.66036629 34.3351874 121.49491417 40.85077562 122.328125 47.3671875 C122.64311039 49.8138459 122.95836332 52.26046986 123.27386475 54.70706177 C124.10203949 61.13391857 124.92714381 67.56116548 125.75140381 73.98852539 C127.05006236 84.11135337 128.35334784 94.23358658 129.6566925 104.35581207 C130.13958088 108.10907209 130.62129464 111.8624816 131.10290527 115.61590576 C132.71592025 128.1682781 134.35602178 140.71638756 136.04492188 153.25878906 C136.3741814 155.71306147 136.70342566 158.16733593 137.03265381 160.62161255 C137.65024347 165.22302802 138.27556321 169.8233031 138.90533447 174.42306519 C139.18423032 176.49571152 139.46287035 178.5683923 139.74121094 180.64111328 C139.93394718 182.02382353 139.93394718 182.02382353 140.13057709 183.43446732 C142.05216605 197.89566789 142.05216605 197.89566789 140 202 C116.54178761 202.20348337 93.08345999 202.38995241 69.625 202.5625 C68.7599094 202.56888284 67.8948188 202.57526568 67.00351334 202.58184195 C22.49839855 202.90925533 -21.99578362 203.16610175 -66.5 202.5625 C-67.91913319 202.54327925 -67.91913319 202.54327925 -69.36693573 202.5236702 C-80.24508222 202.3741975 -91.12271374 202.20307207 -102 202 C-104.39514524 198.32610837 -103.99768748 195.73032118 -103.3918457 191.47509766 C-103.30229111 190.82083109 -103.21273651 190.16656452 -103.12046814 189.49247169 C-102.81720159 187.29787115 -102.49631091 185.1062029 -102.17578125 182.9140625 C-101.95510735 181.33877128 -101.73567131 179.76330622 -101.51737976 178.18768311 C-101.04414194 174.78695234 -100.56360422 171.3873643 -100.07739258 167.98846436 C-98.90469584 159.78518641 -97.7706471 151.57652299 -96.6336937 143.36822891 C-96.23427454 140.48671962 -95.83345483 137.60540709 -95.43264771 134.72409058 C-92.58764104 114.22395941 -89.9576512 93.69704284 -87.3538475 73.16509247 C-87.00331434 70.40113358 -86.65232213 67.63723338 -86.30117798 64.87335205 C-85.85229451 61.34006867 -85.40367057 57.80675251 -84.95527649 54.27340698 C-84.5341697 50.95554856 -84.11235352 47.63778165 -83.68986511 44.32009888 C-83.49112802 42.75865073 -83.29242223 41.19719859 -83.09375 39.63574219 C-82.99887456 38.89024298 -82.90399912 38.14474377 -82.80624866 37.37665367 C-82.22414492 32.79313874 -81.65529261 28.20815972 -81.09375 23.62207031 C-80.95928467 22.54285309 -80.82481934 21.46363586 -80.6862793 20.35171509 C-80.44791388 18.43846676 -80.21448277 16.52459272 -79.98754883 14.60995483 C-78.7447058 4.7447058 -78.7447058 4.7447058 -76 2 C-73.62798453 1.87513046 -71.28359657 1.81399948 -68.90991211 1.79467773 C-68.16849472 1.78477814 -67.42707733 1.77487854 -66.66319275 1.76467896 C-64.20127607 1.73297534 -61.73934007 1.70827174 -59.27734375 1.68359375 C-57.57482895 1.66303186 -55.87231935 1.6420356 -54.16981506 1.62062073 C-49.68012691 1.56532101 -45.19039208 1.51594672 -40.70062256 1.46777344 C-36.12263822 1.41761594 -31.54472197 1.36189992 -26.96679688 1.30664062 C-17.9779227 1.19896249 -8.9889895 1.09753912 0 1 C0 0.67 0 0.34 0 0 Z " fill="#FCFDFD" transform="translate(493,240)"/>
<path d="M0 0 C2.47883409 -0.00571243 4.95766554 -0.01268005 7.43649292 -0.02079773 C13.43419431 -0.03679863 19.43174473 -0.03885008 25.42945266 -0.03358483 C30.30976019 -0.02952114 35.19003693 -0.03101256 40.07034302 -0.03633308 C40.76849737 -0.03708151 41.46665172 -0.03782993 42.18596226 -0.03860103 C43.60484402 -0.04013271 45.02372578 -0.04167106 46.44260752 -0.043216 C59.70557767 -0.05689883 72.9684886 -0.05153261 86.23145735 -0.04003078 C98.33149399 -0.03009749 110.43137772 -0.04304822 122.53139079 -0.06696498 C134.99828724 -0.09141869 147.46511266 -0.10094882 159.93203259 -0.09431225 C166.91429788 -0.0908346 173.89644565 -0.09295545 180.87869263 -0.11056328 C187.44523923 -0.12691961 194.01154277 -0.12200667 200.5780983 -0.10325813 C202.97732617 -0.09959005 205.37657591 -0.10262825 207.77578354 -0.11314392 C223.95593148 -0.17860688 239.3700549 0.29200295 253.80859375 8.52905273 C254.50718506 8.91375732 255.20577637 9.29846191 255.92553711 9.69482422 C262.85104426 13.61919929 269.07787632 18.24107986 275.12109375 23.40405273 C275.85585938 24.02538086 276.590625 24.64670898 277.34765625 25.28686523 C287.94787792 35.04244773 298.8784292 51.75246919 300.31396484 66.36767578 C301.03583417 84.71846896 301.03583417 84.71846896 295.12109375 91.40405273 C289.57595802 97.20181424 284.66515031 99.59784791 276.54524231 99.81344604 C275.23888919 99.8515143 273.93253607 99.88958256 272.58659649 99.9288044 C271.16426898 99.9599734 269.74192967 99.99060745 268.31958008 100.02075195 C266.83181041 100.05838404 265.34404963 100.09636855 263.85629749 100.13468742 C249.27747394 100.49076158 234.69784951 100.55139188 220.11521435 100.5382266 C217.10643511 100.53633893 214.097662 100.53821576 211.08888304 100.54001534 C201.18866915 100.54587658 191.28847926 100.53983553 181.38826895 100.53118706 C177.93476852 100.52832977 174.4812678 100.52618344 171.02776688 100.52401447 C147.00259089 100.5086265 122.97748893 100.46937622 98.95235914 100.42101383 C91.9971318 100.40721898 85.04190285 100.39570043 78.08666992 100.38513184 C56.02906006 100.35108397 33.97160454 100.30264193 11.9141283 100.21693611 C2.28709836 100.17972423 -7.33985635 100.14841081 -16.96694946 100.13360596 C-25.16750968 100.12085392 -33.3678798 100.09424873 -41.56833112 100.0496403 C-45.76426012 100.02718464 -49.95995785 100.01110897 -54.15595245 100.01213455 C-58.00704617 100.012874 -61.85760224 99.99517184 -65.70855653 99.96287704 C-67.10249328 99.95440073 -68.49649038 99.95262475 -69.89044154 99.95825219 C-79.31285004 99.99128904 -84.67169973 99.4200226 -91.62890625 92.77905273 C-92.37140625 91.99530273 -93.11390625 91.21155273 -93.87890625 90.40405273 C-94.86890625 89.74405273 -95.85890625 89.08405273 -96.87890625 88.40405273 C-100.57175894 70.87386381 -96.54323944 55.2959116 -86.87890625 40.40405273 C-75.32124904 24.62340538 -61.68733624 13.27901707 -43.87890625 5.40405273 C-43.21890625 5.40405273 -42.55890625 5.40405273 -41.87890625 5.40405273 C-41.54890625 4.74405273 -41.21890625 4.08405273 -40.87890625 3.40405273 C-27.66544598 -0.65924549 -13.65802336 -0.02858965 0 0 Z " fill="#FAFAFA" transform="translate(410.87890625,460.595947265625)"/>
<path d="M0 0 C0.33 0.99 0.66 1.98 1 3 C2.2065625 3.061875 2.2065625 3.061875 3.4375 3.125 C12.34217863 5.31211405 18.12193475 11.53087571 23 19 C27.1236943 25.91716462 27.22695598 34.06444828 25.30859375 41.78125 C19.82276051 56.65497361 6.92580367 67.06712611 -7.0078125 73.71484375 C-16.7848399 77.91411531 -26.25287592 79.14933587 -36.82093811 79.14717102 C-38.27904621 79.15268605 -38.27904621 79.15268605 -39.76661104 79.1583125 C-43.01506708 79.16930163 -46.26349108 79.17318506 -49.51196289 79.17700195 C-51.84493103 79.1832702 -54.17789819 79.18991732 -56.51086426 79.19691467 C-64.1647879 79.2179143 -71.81871166 79.22831317 -79.47265625 79.23828125 C-82.11193795 79.24233032 -84.75121954 79.24644729 -87.39050102 79.25063133 C-98.37191126 79.26749376 -109.35331945 79.2821283 -120.33474064 79.28938007 C-123.18011031 79.29128969 -126.02547997 79.29321007 -128.87084961 79.29516602 C-129.93153872 79.29589163 -129.93153872 79.29589163 -131.01365589 79.2966319 C-142.45925471 79.3049258 -153.9047488 79.33025531 -165.35030193 79.36274669 C-177.1230624 79.39589234 -188.89576978 79.41383552 -200.66857713 79.41702431 C-207.26974721 79.4191823 -213.87078198 79.42827542 -220.47191048 79.45348549 C-226.68622119 79.4768357 -232.90025786 79.48097135 -239.11460114 79.47072411 C-241.38727927 79.47023033 -243.65997122 79.47650361 -245.93260765 79.49028015 C-267.58379685 79.61411754 -285.32769416 76.24435459 -301.5546875 60.6796875 C-305.39018457 56.4765709 -308.33328428 52.01433725 -311 47 C-311.35964844 46.33484375 -311.71929687 45.6696875 -312.08984375 44.984375 C-314.81355172 39.00978976 -314.94764458 32.41312961 -314 26 C-312.36820289 21.75732751 -310.35202512 17.88504149 -308 14 C-307.34 14 -306.68 14 -306 14 C-305.78472656 13.41476563 -305.56945312 12.82953125 -305.34765625 12.2265625 C-303.53348407 9.22923456 -301.45735369 8.12597519 -298.4375 6.375 C-297.44621094 5.78460938 -296.45492188 5.19421875 -295.43359375 4.5859375 C-287.63125261 0.98212578 -279.88315576 0.71127454 -271.3973999 0.75276184 C-269.68831558 0.74914022 -269.68831558 0.74914022 -267.94470429 0.74544543 C-264.14243914 0.73982807 -260.34034344 0.74845678 -256.53808594 0.75708008 C-253.80598733 0.75711428 -251.07389383 0.75414732 -248.34179688 0.75132751 C-241.70182205 0.74629901 -235.06189722 0.75190968 -228.42192861 0.76117782 C-220.68727977 0.77158438 -212.95264162 0.77149105 -205.21798709 0.77100524 C-191.41907721 0.77050518 -177.62019056 0.77965202 -163.82128906 0.79418945 C-150.43326393 0.80828669 -137.04525922 0.81535971 -123.65722656 0.81469727 C-122.83203332 0.81465731 -122.00684008 0.81461735 -121.15664098 0.81457619 C-120.33286829 0.81453583 -119.5090956 0.81449548 -118.6603601 0.8144539 C-103.41095658 0.81376412 -88.16156174 0.81965232 -72.91216104 0.82860712 C-67.52078357 0.83162292 -62.1294077 0.8326866 -56.73802948 0.83313942 C-50.17090809 0.83382148 -43.60380133 0.83828541 -37.03668615 0.84747223 C-33.68620364 0.85208904 -30.33575576 0.85460439 -26.98526764 0.85387802 C-23.35504391 0.85338874 -19.72488082 0.85902918 -16.09466553 0.86628723 C-15.03368519 0.86473863 -13.97270484 0.86319003 -12.87957358 0.8615945 C-11.4203902 0.86643117 -11.4203902 0.86643117 -9.93172836 0.87136555 C-9.0940076 0.87206997 -8.25628685 0.8727744 -7.39318061 0.87350017 C-4.84906065 1.00797842 -2.4830354 1.44266203 0 2 C0 1.34 0 0.68 0 0 Z " fill="#F9F9F9" transform="translate(656,146)"/>
<path d="M0 0 C1.11234512 -0.00021904 1.11234512 -0.00021904 2.24716187 -0.0004425 C4.70370385 0.00025539 7.16017045 0.00804206 9.61669922 0.01586914 C11.31777912 0.01773376 13.01885956 0.01915745 14.71994019 0.02015686 C19.20145139 0.02397861 23.68293029 0.03380599 28.16442871 0.04486084 C32.73575402 0.05508231 37.30708453 0.05965606 41.87841797 0.06469727 C50.85108843 0.07542854 59.82373489 0.09250088 68.79638672 0.11352539 C68.46638672 0.77352539 68.13638672 1.43352539 67.79638672 2.11352539 C67.77610258 3.59352044 67.80692105 5.07429744 67.86035156 6.5534668 C67.92732704 15.12719308 66.76442521 23.57231702 65.77294922 32.07446289 C65.548833 34.03690692 65.32535484 35.9994239 65.10244751 37.96200562 C64.60829708 42.30625971 64.1108383 46.6501194 63.6114502 50.99377441 C62.74930101 58.50663003 61.90407453 66.02135702 61.06103516 73.53637695 C60.75496012 76.26354208 60.44880828 78.99069859 60.14260864 81.71784973 C60.06527642 82.40661518 59.9879442 83.09538064 59.90826857 83.80501777 C53.67867947 139.26890575 47.42771235 194.73243142 40.76959991 250.14672089 C40.42283414 253.03895307 40.07839499 255.93145393 39.73455811 258.82403564 C39.20580265 263.268176 38.67051881 267.71147732 38.12944794 272.15413475 C37.9369215 273.74165597 37.74638015 275.32941949 37.55805206 276.91744423 C37.30443625 279.05120897 37.04297101 281.18386449 36.77929688 283.31640625 C36.63658356 284.49440292 36.49387024 285.6723996 36.34683228 286.88609314 C35.63205454 291.07705571 34.94022865 294.84712896 32.04638672 298.05102539 C28.87402122 299.54908688 27.10148383 299.16834362 23.79638672 298.11352539 C16.12307022 289.80066338 17.55320413 271.08564937 16.44091797 260.22290039 C16.21671376 258.06127198 15.99213666 255.89968222 15.76721191 253.73812866 C15.29113566 249.15742759 14.81715029 244.57651729 14.34487915 239.99542236 C13.23163671 229.19951571 12.10679433 218.40481536 10.98210716 207.61009598 C10.73309457 205.21984742 10.48420484 202.82958606 10.23543739 200.43931198 C8.25010683 181.36592004 6.21470804 162.2989771 4.10888672 143.23852539 C3.56947872 138.34924052 3.03039964 133.45991952 2.49169922 128.57055664 C2.35861359 127.36288132 2.22552795 126.15520599 2.08840942 124.91093445 C0.27472975 108.41692459 -1.48795266 91.91741587 -3.24985123 75.41780853 C-3.51133559 72.97073686 -3.77332927 70.52372027 -4.03549194 68.07672119 C-7.1298162 39.18518737 -7.1298162 39.18518737 -8.43408203 26.00024414 C-8.51539871 25.20713333 -8.59671539 24.41402252 -8.68049622 23.59687805 C-9.17962519 18.41541193 -9.2670862 13.31927121 -9.20361328 8.11352539 C-9.86361328 7.78352539 -10.52361328 7.45352539 -11.20361328 7.11352539 C-10.60177579 5.09307097 -9.93055232 3.092415 -9.20361328 1.11352539 C-6.24383744 -0.36636253 -3.24383319 -0.0165786 0 0 Z " fill="#F5F6F6" transform="translate(483.20361328125,575.886474609375)"/>
<path d="M0 0 C2.64 0 5.28 0 8 0 C8 0.33 8 0.66 8 1 C8.63289948 0.99777939 9.26579895 0.99555878 9.9178772 0.99327087 C16.57024566 0.97095949 23.2226033 0.95598682 29.875 0.94506836 C32.3499393 0.94007336 34.82487569 0.93327509 37.29980469 0.92456055 C63.69257354 0.83402845 63.69257354 0.83402845 75 2 C75 1.34 75 0.68 75 0 C81.552 -0.126 81.552 -0.126 84 0.5625 C87.09384361 1.23927829 89.91444879 0.53403771 93 0 C93.33 0.66 93.66 1.32 94 2 C96.97 1.34 99.94 0.68 103 0 C103 0.33 103 0.66 103 1 C104.65 1.33 106.3 1.66 108 2 C108.33 1.34 108.66 0.68 109 0 C110.98 0.66 112.96 1.32 115 2 C115 2.66 115 3.32 115 4 C52.3 4 -10.4 4 -75 4 C-76.70909957 9.9080514 -76.70909957 9.9080514 -77.7518158 15.80056763 C-77.8680278 16.68857056 -77.98423981 17.57657349 -78.10397339 18.4914856 C-78.22298004 19.44320648 -78.34198669 20.39492737 -78.46459961 21.37548828 C-78.59662277 22.39616394 -78.72864594 23.4168396 -78.8646698 24.46844482 C-79.29891717 27.83510979 -79.72559621 31.20268939 -80.15234375 34.5703125 C-80.45566955 36.93145218 -80.75951625 39.292525 -81.06385803 41.65353394 C-81.86467113 47.87552916 -82.65928185 54.09830015 -83.45233154 60.32128906 C-84.71617884 70.22982643 -85.98980436 80.13711227 -87.26269722 90.04449081 C-87.70250709 93.4741117 -88.13993122 96.90402962 -88.57688904 100.33401489 C-90.26850839 113.57377987 -92.06964045 126.79289603 -94 140 C-94.33 140 -94.66 140 -95 140 C-95.17792145 132.76768214 -94.49135171 125.86653081 -93.53125 118.703125 C-93.29730026 116.90430122 -93.29730026 116.90430122 -93.05862427 115.06913757 C-92.63317435 111.80681997 -92.20265289 108.54522388 -91.76953888 105.28391647 C-91.31593363 101.86105152 -90.86795539 98.43745013 -90.41943359 95.01391602 C-89.85867681 90.73669749 -89.2970903 86.45959273 -88.73251343 82.18287659 C-87.47838135 72.67909846 -86.24804252 63.17250675 -85.03313446 53.66363907 C-84.4941425 49.45087036 -83.95125317 45.23860235 -83.40815353 41.02636147 C-82.97371613 37.65512207 -82.54141624 34.28363809 -82.11401367 30.91149902 C-81.6368821 27.15762029 -81.1514617 23.40490113 -80.6640625 19.65234375 C-80.52477325 18.54058273 -80.38548401 17.42882172 -80.24197388 16.28337097 C-80.10749847 15.26036392 -79.97302307 14.23735687 -79.83447266 13.18334961 C-79.72092438 12.29779892 -79.6073761 11.41224823 -79.49038696 10.49986267 C-78.90312304 7.50614695 -78.21656021 4.21656021 -76 2 C-73.62798453 1.87513046 -71.28359657 1.81399948 -68.90991211 1.79467773 C-68.16849472 1.78477814 -67.42707733 1.77487854 -66.66319275 1.76467896 C-64.20127607 1.73297534 -61.73934007 1.70827174 -59.27734375 1.68359375 C-57.57482895 1.66303186 -55.87231935 1.6420356 -54.16981506 1.62062073 C-49.68012691 1.56532101 -45.19039208 1.51594672 -40.70062256 1.46777344 C-36.12263822 1.41761594 -31.54472197 1.36189992 -26.96679688 1.30664062 C-17.9779227 1.19896249 -8.9889895 1.09753912 0 1 C0 0.67 0 0.34 0 0 Z " fill="#B0B0B0" transform="translate(493,240)"/>
<path d="M0 0 C-1.57693411 3.89702108 -4.11161502 6.2489773 -7.125 9.125 C-8.78723433 10.71189226 -10.42224346 12.32909178 -12 14 C-12 14.66 -12 15.32 -12 16 C-15.46153846 19 -15.46153846 19 -18 19 C-15.53490226 13.57678498 -6.33467914 0 0 0 Z " fill="#B4B5B6" transform="translate(345,480)"/>
<path d="M0 0 C0.33 0 0.66 0 1 0 C1 2.97 1 5.94 1 9 C0.67 9 0.34 9 0 9 C0 6.03 0 3.06 0 0 Z " fill="#ECEDEC" transform="translate(484,700)"/>
<path d="M0 0 C0.33 0 0.66 0 1 0 C1 2.31 1 4.62 1 7 C0.67 7 0.34 7 0 7 C0 4.69 0 2.38 0 0 Z " fill="#E7E7E8" transform="translate(496,813)"/>
<path d="M0 0 C0.33 0 0.66 0 1 0 C1 1.98 1 3.96 1 6 C0.67 6 0.34 6 0 6 C0 4.02 0 2.04 0 0 Z " fill="#EBECEC" transform="translate(489,747)"/>
<path d="M0 0 C1.98 0 3.96 0 6 0 C6 0.33 6 0.66 6 1 C4.02 1 2.04 1 0 1 C0 0.67 0 0.34 0 0 Z " fill="#F6F7F6" transform="translate(441,240)"/>
<path d="M0 0 C1.65 0 3.3 0 5 0 C5 0.33 5 0.66 5 1 C3.35 1 1.7 1 0 1 C0 0.67 0 0.34 0 0 Z " fill="#EDEDED" transform="translate(438,145)"/>
<path d="M0 0 C1 4 1 4 1 4 Z " fill="#E5E5E5" transform="translate(498,830)"/>
<path d="M0 0 C1 4 1 4 1 4 Z " fill="#EEEEEF" transform="translate(540,691)"/>
<path d="M0 0 C1 4 1 4 1 4 Z " fill="#EEEFEE" transform="translate(482,682)"/>
<path d="M0 0 C0.99 0.495 0.99 0.495 2 1 C1.01 1.495 1.01 1.495 0 2 C0 1.34 0 0.68 0 0 Z " fill="#BCBBBB" transform="translate(506,875)"/>
<path d="" fill="#E4E5E5" transform="translate(0,0)"/>
<path d="" fill="#E7E8E6" transform="translate(0,0)"/>
<path d="M0 0 C3 1 3 1 3 1 Z " fill="#F1F2F2" transform="translate(376,461)"/>
<path d="" fill="#EFEEF0" transform="translate(0,0)"/>
<path d="M0 0 C0.66 0 1.32 0 2 0 C1.67 0.66 1.34 1.32 1 2 C0.67 1.34 0.34 0.68 0 0 Z " fill="#F1F1F1" transform="translate(400,339)"/>
<path d="M0 0 C0.33 0.66 0.66 1.32 1 2 C0.34 1.67 -0.32 1.34 -1 1 C-0.67 0.67 -0.34 0.34 0 0 Z " fill="#EFEEEF" transform="translate(401,336)"/>
<path d="" fill="#EFEFF1" transform="translate(0,0)"/>
<path d="M0 0 C3 1 3 1 3 1 Z " fill="#F8F9F7" transform="translate(513,240)"/>
<path d="M0 0 C3 1 3 1 3 1 Z " fill="#F8F7F7" transform="translate(485,240)"/>
<path d="M0 0 C3 1 3 1 3 1 Z " fill="#F9F9F8" transform="translate(481,240)"/>
<path d="M0 0 C3 1 3 1 3 1 Z " fill="#F8F7F7" transform="translate(477,240)"/>
<path d="M0 0 C3 1 3 1 3 1 Z " fill="#F8F7F7" transform="translate(469,240)"/>
<path d="M0 0 C3 1 3 1 3 1 Z " fill="#F7F9F7" transform="translate(465,240)"/>
<path d="M0 0 C3 1 3 1 3 1 Z " fill="#F8F8F8" transform="translate(456,240)"/>
<path d="M0 0 C3 1 3 1 3 1 Z " fill="#F0EFEF" transform="translate(564,145)"/>
<path d="M0 0 C3 1 3 1 3 1 Z " fill="#EFF0EE" transform="translate(517,145)"/>
<path d="" fill="#DAD9DA" transform="translate(0,0)"/>
<path d="" fill="#E0E1E0" transform="translate(0,0)"/>
<path d="" fill="#E8E8E8" transform="translate(0,0)"/>
<path d="" fill="#EBEBEB" transform="translate(0,0)"/>
<path d="" fill="#EFEFEF" transform="translate(0,0)"/>
<path d="" fill="#ECEEEE" transform="translate(0,0)"/>
<path d="" fill="#F2F3F3" transform="translate(0,0)"/>
<path d="" fill="#EFEEEF" transform="translate(0,0)"/>
<path d="" fill="#F2F3F3" transform="translate(0,0)"/>
<path d="" fill="#EEEDED" transform="translate(0,0)"/>
<path d="" fill="#ECEEED" transform="translate(0,0)"/>
<path d="" fill="#F3F2F2" transform="translate(0,0)"/>
<path d="" fill="#F2F2F2" transform="translate(0,0)"/>
<path d="" fill="#D8DBDA" transform="translate(0,0)"/>
<path d="" fill="#EEEEED" transform="translate(0,0)"/>
<path d="M0 0 C2 1 2 1 2 1 Z " fill="#EEEDEE" transform="translate(366,464)"/>
<path d="" fill="#F0EFEF" transform="translate(0,0)"/>
<path d="" fill="#F5F5F4" transform="translate(0,0)"/>
<path d="" fill="#EEEDED" transform="translate(0,0)"/>
<path d="" fill="#F3F3F3" transform="translate(0,0)"/>
<path d="M0 0 C2 1 2 1 2 1 Z " fill="#F9F8F8" transform="translate(589,240)"/>
<path d="M0 0 C2 1 2 1 2 1 Z " fill="#F7F8F7" transform="translate(565,240)"/>
<path d="M0 0 C2 1 2 1 2 1 Z " fill="#FAF9F8" transform="translate(549,240)"/>
<path d="M0 0 C2 1 2 1 2 1 Z " fill="#F9F9F9" transform="translate(545,240)"/>
<path d="M0 0 C2 1 2 1 2 1 Z " fill="#F7F7F7" transform="translate(542,240)"/>
<path d="M0 0 C2 1 2 1 2 1 Z " fill="#F8F8F8" transform="translate(537,240)"/>
<path d="M0 0 C2 1 2 1 2 1 Z " fill="#F9F9F8" transform="translate(533,240)"/>
<path d="M0 0 C2 1 2 1 2 1 Z " fill="#F9FAFA" transform="translate(525,240)"/>
<path d="M0 0 C2 1 2 1 2 1 Z " fill="#F8F9F8" transform="translate(509,240)"/>
<path d="M0 0 C2 1 2 1 2 1 Z " fill="#F8F9F7" transform="translate(505,240)"/>
<path d="M0 0 C2 1 2 1 2 1 Z " fill="#F9F8F7" transform="translate(502,240)"/>
<path d="M0 0 C2 1 2 1 2 1 Z " fill="#F9F8F8" transform="translate(473,240)"/>
<path d="M0 0 C2 1 2 1 2 1 Z " fill="#F7F8F7" transform="translate(461,240)"/>
<path d="M0 0 C2 1 2 1 2 1 Z " fill="#F7F7F7" transform="translate(437,240)"/>
<path d="M0 0 C2 1 2 1 2 1 Z " fill="#F7F8F6" transform="translate(429,240)"/>
<path d="" fill="#E8E8EA" transform="translate(0,0)"/>
<path d="" fill="#DEDEDF" transform="translate(0,0)"/>
<path d="" fill="#E3E4E3" transform="translate(0,0)"/>
<path d="M0 0 C2 1 2 1 2 1 Z " fill="#E9E9EA" transform="translate(635,145)"/>
<path d="M0 0 C2 1 2 1 2 1 Z " fill="#EFEFEE" transform="translate(590,145)"/>
<path d="M0 0 C2 1 2 1 2 1 Z " fill="#EEEFEE" transform="translate(583,145)"/>
<path d="M0 0 C2 1 2 1 2 1 Z " fill="#EEEEED" transform="translate(478,145)"/>
<path d="M0 0 C2 1 2 1 2 1 Z " fill="#F0EFEE" transform="translate(468,145)"/>
<path d="M0 0 C2 1 2 1 2 1 Z " fill="#EAEAEA" transform="translate(407,145)"/>
<path d="M0 0 C2 1 2 1 2 1 Z " fill="#EBEAEA" transform="translate(404,145)"/>
<path d="" fill="#181818" transform="translate(0,0)"/>
<path d="" fill="#191919" transform="translate(0,0)"/>
<path d="" fill="#171818" transform="translate(0,0)"/>
<path d="" fill="#242524" transform="translate(0,0)"/>
<path d="" fill="#191919" transform="translate(0,0)"/>
<path d="" fill="#181918" transform="translate(0,0)"/>
<path d="" fill="#1A1818" transform="translate(0,0)"/>
<path d="" fill="#1A1B19" transform="translate(0,0)"/>
<path d="" fill="#1A1A19" transform="translate(0,0)"/>
<path d="" fill="#BABABC" transform="translate(0,0)"/>
<path d="" fill="#C2C2C2" transform="translate(0,0)"/>
<path d="" fill="#CFCFCF" transform="translate(0,0)"/>
<path d="" fill="#D8D7D8" transform="translate(0,0)"/>
<path d="" fill="#DCDDDC" transform="translate(0,0)"/>
<path d="" fill="#E4E2E3" transform="translate(0,0)"/>
<path d="" fill="#E6E6E7" transform="translate(0,0)"/>
<path d="" fill="#E4E2E4" transform="translate(0,0)"/>
<path d="" fill="#2E2E2C" transform="translate(0,0)"/>
<path d="" fill="#191919" transform="translate(0,0)"/>
<path d="" fill="#E7E7E7" transform="translate(0,0)"/>
<path d="" fill="#E8E7E8" transform="translate(0,0)"/>
<path d="" fill="#E7E8E7" transform="translate(0,0)"/>
<path d="" fill="#ECEEEC" transform="translate(0,0)"/>
<path d="" fill="#1F1E1E" transform="translate(0,0)"/>
<path d="" fill="#E8E7E7" transform="translate(0,0)"/>
<path d="" fill="#ECEDEC" transform="translate(0,0)"/>
<path d="" fill="#E7E7E8" transform="translate(0,0)"/>
<path d="" fill="#EAE8EA" transform="translate(0,0)"/>
<path d="" fill="#EEEEED" transform="translate(0,0)"/>
<path d="" fill="#ECF0F0" transform="translate(0,0)"/>
<path d="" fill="#EEEFEF" transform="translate(0,0)"/>
<path d="" fill="#F1F1F2" transform="translate(0,0)"/>
<path d="" fill="#1B1B1D" transform="translate(0,0)"/>
<path d="" fill="#EBEBE9" transform="translate(0,0)"/>
<path d="" fill="#F4F5F4" transform="translate(0,0)"/>
<path d="" fill="#E9E7EA" transform="translate(0,0)"/>
<path d="" fill="#EFEDEF" transform="translate(0,0)"/>
<path d="" fill="#EBECEC" transform="translate(0,0)"/>
<path d="" fill="#ECEDEC" transform="translate(0,0)"/>
<path d="" fill="#EAE9EA" transform="translate(0,0)"/>
<path d="" fill="#E8EAE9" transform="translate(0,0)"/>
<path d="" fill="#EFEFEF" transform="translate(0,0)"/>
<path d="" fill="#F5F7F7" transform="translate(0,0)"/>
<path d="" fill="#F0F0EF" transform="translate(0,0)"/>
<path d="" fill="#F0F1F0" transform="translate(0,0)"/>
<path d="" fill="#EFF0EF" transform="translate(0,0)"/>
<path d="" fill="#1E1E1E" transform="translate(0,0)"/>
<path d="" fill="#1F1F1E" transform="translate(0,0)"/>
<path d="" fill="#F0F1EF" transform="translate(0,0)"/>
<path d="" fill="#EEEDEE" transform="translate(0,0)"/>
<path d="" fill="#EEEDED" transform="translate(0,0)"/>
<path d="" fill="#F0F1F0" transform="translate(0,0)"/>
<path d="" fill="#DCDDDE" transform="translate(0,0)"/>
<path d="" fill="#D4D5D5" transform="translate(0,0)"/>
<path d="" fill="#D4D5D6" transform="translate(0,0)"/>
<path d="" fill="#DAD9DA" transform="translate(0,0)"/>
<path d="" fill="#D5D5D6" transform="translate(0,0)"/>
<path d="" fill="#D7D8D8" transform="translate(0,0)"/>
<path d="" fill="#E5E5E7" transform="translate(0,0)"/>
<path d="" fill="#E4E5E4" transform="translate(0,0)"/>
<path d="" fill="#DDDDDE" transform="translate(0,0)"/>
<path d="" fill="#E6E8E8" transform="translate(0,0)"/>
<path d="" fill="#E8EAE9" transform="translate(0,0)"/>
<path d="" fill="#EDEDED" transform="translate(0,0)"/>
<path d="" fill="#E7E9E9" transform="translate(0,0)"/>
<path d="" fill="#EFF0EE" transform="translate(0,0)"/>
<path d="" fill="#EBEAEA" transform="translate(0,0)"/>
<path d="" fill="#ECEBED" transform="translate(0,0)"/>
<path d="" fill="#EBEBEA" transform="translate(0,0)"/>
<path d="" fill="#EEECED" transform="translate(0,0)"/>
<path d="" fill="#F0F0F0" transform="translate(0,0)"/>
<path d="" fill="#FAF9F9" transform="translate(0,0)"/>
<path d="" fill="#FBFBF9" transform="translate(0,0)"/>
<path d="" fill="#FCFBF9" transform="translate(0,0)"/>
<path d="" fill="#F4F4F4" transform="translate(0,0)"/>
<path d="" fill="#252524" transform="translate(0,0)"/>
<path d="" fill="#EFEEEE" transform="translate(0,0)"/>
<path d="" fill="#F2F1F0" transform="translate(0,0)"/>
<path d="" fill="#ECECEC" transform="translate(0,0)"/>
<path d="" fill="#EFF0F0" transform="translate(0,0)"/>
<path d="" fill="#F3F3F4" transform="translate(0,0)"/>
<path d="" fill="#F6F4F2" transform="translate(0,0)"/>
<path d="" fill="#EDECEC" transform="translate(0,0)"/>
<path d="" fill="#EFEFEF" transform="translate(0,0)"/>
<path d="" fill="#EFF1F0" transform="translate(0,0)"/>
<path d="" fill="#F1F1F1" transform="translate(0,0)"/>
<path d="" fill="#F1F1F1" transform="translate(0,0)"/>
<path d="" fill="#1B1D1C" transform="translate(0,0)"/>
<path d="" fill="#272728" transform="translate(0,0)"/>
<path d="" fill="#F5F4F6" transform="translate(0,0)"/>
<path d="" fill="#F2EEF1" transform="translate(0,0)"/>
<path d="" fill="#F1F0EE" transform="translate(0,0)"/>
<path d="" fill="#1D1E1C" transform="translate(0,0)"/>
<path d="" fill="#ECEBEB" transform="translate(0,0)"/>
<path d="" fill="#EEEDED" transform="translate(0,0)"/>
<path d="" fill="#EEEFEF" transform="translate(0,0)"/>
<path d="" fill="#EEEDEE" transform="translate(0,0)"/>
<path d="" fill="#EEEDEB" transform="translate(0,0)"/>
<path d="" fill="#F5F4F5" transform="translate(0,0)"/>
<path d="" fill="#EDECEE" transform="translate(0,0)"/>
<path d="" fill="#1C1E1B" transform="translate(0,0)"/>
<path d="" fill="#F4F3F3" transform="translate(0,0)"/>
<path d="" fill="#ECECED" transform="translate(0,0)"/>
<path d="" fill="#F3F1F2" transform="translate(0,0)"/>
<path d="" fill="#F2F2F4" transform="translate(0,0)"/>
<path d="" fill="#F2F2F2" transform="translate(0,0)"/>
<path d="" fill="#EFEFF1" transform="translate(0,0)"/>
<path d="" fill="#EFF0F0" transform="translate(0,0)"/>
<path d="" fill="#EEEDEF" transform="translate(0,0)"/>
<path d="" fill="#ECEAEA" transform="translate(0,0)"/>
<path d="" fill="#F9F8F8" transform="translate(0,0)"/>
<path d="" fill="#F9F9F6" transform="translate(0,0)"/>
<path d="" fill="#F8F8FC" transform="translate(0,0)"/>
<path d="" fill="#F9FAFB" transform="translate(0,0)"/>
<path d="" fill="#F9FBF9" transform="translate(0,0)"/>
<path d="" fill="#FAF9F7" transform="translate(0,0)"/>
<path d="" fill="#FAF9FA" transform="translate(0,0)"/>
<path d="" fill="#FAF9F8" transform="translate(0,0)"/>
<path d="" fill="#F9FBFA" transform="translate(0,0)"/>
<path d="" fill="#F5F5F6" transform="translate(0,0)"/>
<path d="" fill="#F2F1F2" transform="translate(0,0)"/>
<path d="" fill="#E5E5E7" transform="translate(0,0)"/>
<path d="" fill="#EAECEC" transform="translate(0,0)"/>
<path d="" fill="#EAE9E9" transform="translate(0,0)"/>
<path d="" fill="#E7E8E7" transform="translate(0,0)"/>
<path d="" fill="#EEEFEF" transform="translate(0,0)"/>
<path d="" fill="#EAE9E8" transform="translate(0,0)"/>
<path d="" fill="#EEEFEF" transform="translate(0,0)"/>
<path d="" fill="#E6E5E5" transform="translate(0,0)"/>
<path d="" fill="#ECEEEF" transform="translate(0,0)"/>
<path d="" fill="#DFDEE1" transform="translate(0,0)"/>
<path d="" fill="#222121" transform="translate(0,0)"/>
<path d="" fill="#E2E5E2" transform="translate(0,0)"/>
<path d="" fill="#DCDDDE" transform="translate(0,0)"/>
<path d="" fill="#DBDBDA" transform="translate(0,0)"/>
<path d="" fill="#DADADB" transform="translate(0,0)"/>
<path d="" fill="#DCDBDD" transform="translate(0,0)"/>
<path d="" fill="#DEDDDF" transform="translate(0,0)"/>
<path d="" fill="#DDDFDF" transform="translate(0,0)"/>
<path d="" fill="#E0E2E3" transform="translate(0,0)"/>
<path d="" fill="#E5E4E4" transform="translate(0,0)"/>
<path d="" fill="#E6E6E6" transform="translate(0,0)"/>
<path d="" fill="#EAEAE9" transform="translate(0,0)"/>
<path d="" fill="#E9E9EA" transform="translate(0,0)"/>
<path d="" fill="#ECECE9" transform="translate(0,0)"/>
<path d="" fill="#EBEAEB" transform="translate(0,0)"/>
<path d="" fill="#ECECEB" transform="translate(0,0)"/>
<path d="" fill="#EAEBEA" transform="translate(0,0)"/>
<path d="" fill="#EFEFED" transform="translate(0,0)"/>
<path d="" fill="#EDEEED" transform="translate(0,0)"/>
<path d="" fill="#EEF0ED" transform="translate(0,0)"/>
<path d="" fill="#EFEFED" transform="translate(0,0)"/>
<path d="" fill="#F0F0EE" transform="translate(0,0)"/>
<path d="" fill="#F0F1EF" transform="translate(0,0)"/>
<path d="" fill="#EEF1EF" transform="translate(0,0)"/>
<path d="" fill="#EDEDEC" transform="translate(0,0)"/>
<path d="" fill="#EFF0EF" transform="translate(0,0)"/>
<path d="" fill="#F1F0F0" transform="translate(0,0)"/>
<path d="" fill="#EDEEEE" transform="translate(0,0)"/>
<path d="" fill="#EBECEC" transform="translate(0,0)"/>
<path d="" fill="#EFF0EE" transform="translate(0,0)"/>
<path d="" fill="#ECEDED" transform="translate(0,0)"/>
<path d="" fill="#EEEFED" transform="translate(0,0)"/>
<path d="" fill="#ECEEEC" transform="translate(0,0)"/>
<path d="" fill="#EEEFEE" transform="translate(0,0)"/>
<path d="" fill="#EEF0EE" transform="translate(0,0)"/>
<path d="" fill="#EEEEEE" transform="translate(0,0)"/>
<path d="" fill="#EBEDED" transform="translate(0,0)"/>
<path d="" fill="#ECEDEB" transform="translate(0,0)"/>
<path d="" fill="#EBEBEA" transform="translate(0,0)"/>
<path d="" fill="#E8EAEA" transform="translate(0,0)"/>
<path d="" fill="#E8E8E8" transform="translate(0,0)"/>
<path d="" fill="#E6E7E6" transform="translate(0,0)"/>
<path d="" fill="#E3E3E4" transform="translate(0,0)"/>
<path d="" fill="#E2E3E4" transform="translate(0,0)"/>
<path d="" fill="#E2E2E3" transform="translate(0,0)"/>
<path d="" fill="#1B1C1B" transform="translate(0,0)"/>
<path d="" fill="#191B1B" transform="translate(0,0)"/>
</svg>
